<?xml version="1.0" encoding="utf-8"?>
<!-- Generator: Adobe Illustrator 22.0.1, SVG Export Plug-In . SVG Version: 6.00 Build 0)  -->
<svg version="1.1" id="Layer_1" xmlns="http://www.w3.org/2000/svg" xmlns:xlink="http://www.w3.org/1999/xlink" x="0px" y="0px"
	 viewBox="0 0 1460.4 627.2" style="enable-background:new 0 0 1460.4 627.2;" xml:space="preserve">
<style type="text/css">
	.st0{fill:#00ABC7;}
	.st1{clip-path:url(#SVGID_2_);fill:#00ABC7;}
</style>
<rect x="613.4" y="14.8" transform="matrix(0.7071 -0.7071 0.7071 0.7071 154.398 473.8154)" class="st0" width="71.5" height="71.5"/>
<rect x="714.2" y="14.8" transform="matrix(0.7071 -0.7071 0.7071 0.7071 183.9097 545.0631)" class="st0" width="71.5" height="71.5"/>
<rect x="815.1" y="14.8" transform="matrix(0.7071 -0.7071 0.7071 0.7071 213.4592 616.4019)" class="st0" width="71.5" height="71.5"/>
<rect x="613.4" y="115.7" transform="matrix(0.7071 -0.7071 0.7071 0.7071 83.059 503.3642)" class="st0" width="71.5" height="71.5"/>
<rect x="613.4" y="216.6" transform="matrix(0.7071 -0.7071 0.7071 0.7071 11.7199 532.9138)" class="st0" width="71.5" height="71.5"/>
<rect x="714.2" y="115.7" transform="matrix(0.7071 -0.7071 0.7071 0.7071 112.5712 574.6132)" class="st0" width="71.5" height="71.5"/>
<polygon class="st0" points="0,411.2 0,623.3 29,623.3 29,524.4 112.3,524.4 112.3,497.2 29,497.2 29,438.4 172,438.4 172,411.2 "/>
<g>
	<defs>
		<rect id="SVGID_1_" width="1460.4" height="627.2"/>
	</defs>
	<clipPath id="SVGID_2_">
		<use xlink:href="#SVGID_1_"  style="overflow:visible;"/>
	</clipPath>
	<path class="st1" d="M385.2,525.9c28.4-7.2,43.3-26.3,43.3-54.7c0-39.7-24.2-60-69.9-60H246.1v212h29v-94.4h80l50.8,94.4h30.8
		L385.2,525.9z M275,502.3v-64.2h82.7c27.5,0,40.9,10.2,40.9,33.2c0,21.5-13.4,31.1-40.9,31.1H275z"/>
	<rect x="516.1" y="411.2" class="st1" width="29" height="212"/>
	<path class="st1" d="M660,465.6c0,17.6,14.3,27.2,40.6,30.5l41.5,4.8c35.8,3.9,69.6,19.1,69.6,63c0,34.3-27.8,63.3-86.3,63.3
		c-65.7,0-92.3-33.4-101.8-64.5h31.1c7.2,16.1,25.4,37.9,70.8,37.9c37,0,57.3-14.9,57.3-35.2c0-25.1-17.6-32.6-43-35.8l-41.8-4.5
		c-38.2-3.9-66.9-22.7-66.9-59.4c0-34.6,31.7-57.9,80.3-57.9c63.6,0,88.1,31.1,95.3,57.6h-30.2c-7.2-14.3-24.5-31.1-65.1-31.1
		C677,434.2,660,446.5,660,465.6"/>
	<path class="st1" d="M924,527.1v69.6h76.8c31.1,0,44.8-13.1,44.8-34.9c0-22.4-14-34.6-44.8-34.6H924z M924,437.8v62.7h74.7
		c27.8,0,41.8-11,41.8-31.4c0-20.9-14-31.4-41.8-31.4H924z M895.3,411.2h103.9c46.3,0,71.1,20.6,71.1,57.3c0,23-17.3,38.5-34.1,43.3
		c20.6,5.7,38.5,23.3,38.5,50.5c0,37.3-24.5,60.9-73.5,60.9h-106V411.2z"/>
	<rect x="1159.6" y="411.2" class="st1" width="29" height="212"/>
	<polygon class="st1" points="1284.4,411.2 1284.4,623.3 1460.4,623.3 1460.4,596.4 1313.1,596.4 1313.1,524.1 1460.4,524.1 
		1460.4,497.2 1313.1,497.2 1313.1,438.1 1460.4,438.1 1460.4,411.2 	"/>
</g>
</svg>
